<svg data-v-423bf9ae="" xmlns="http://www.w3.org/2000/svg" viewBox="0 0 157.00409533605844 60" class="font"><!----><!----><!----><g data-v-423bf9ae="" id="e12b936f-3f31-48a3-800f-1fcca40b0b75" fill="black" transform="matrix(5.727985998178758,0,0,5.727985998178758,-2.5775956296090925,-1.0030461919216123)"><path d="M3.39 7.49L3.39 7.49C3.39 7.98 3.01 8.33 2.53 8.33L0.76 8.33C0.67 8.33 0.60 8.40 0.60 8.50C0.60 8.58 0.67 8.65 0.76 8.65L2.53 8.65C3.18 8.65 3.71 8.15 3.71 7.49L3.71 0.49C3.71 0.41 3.64 0.34 3.54 0.34C3.46 0.34 3.39 0.41 3.39 0.49ZM0.62 10.65L0.62 10.65L2.59 10.65C4.33 10.65 5.71 9.23 5.71 7.49L5.71 0.49C5.71 0.41 5.64 0.34 5.54 0.34C5.46 0.34 5.39 0.41 5.39 0.49L5.39 7.49C5.39 9.04 4.16 10.33 2.59 10.33L0.62 10.33C0.52 10.33 0.45 10.40 0.45 10.50C0.45 10.58 0.52 10.65 0.62 10.65ZM16.25 10.50L16.25 10.50L16.25 4.17C16.25 4.00 16.06 3.93 15.96 4.09L13.12 8.15L10.28 4.07C10.18 3.95 9.97 4.00 9.97 4.17L9.97 10.50C9.97 10.58 10.04 10.65 10.12 10.65C10.23 10.65 10.30 10.58 10.30 10.50L10.30 4.69L12.96 8.54C12.98 8.55 12.99 8.57 13.01 8.58C13.10 8.62 13.20 8.61 13.24 8.54L15.93 4.69L15.93 10.50C15.93 10.58 16.00 10.65 16.10 10.65C16.18 10.65 16.25 10.58 16.25 10.50ZM8.27 10.50L8.27 10.50L8.27 0.34C8.27 0.25 8.19 0.18 8.09 0.18C8.01 0.18 7.94 0.25 7.94 0.34L7.94 10.50C7.94 10.58 8.01 10.65 8.09 10.65C8.19 10.65 8.27 10.58 8.27 10.50ZM18.28 10.50L18.28 10.50L18.28 0.34C18.28 0.25 18.21 0.18 18.12 0.18C18.03 0.18 17.96 0.25 17.96 0.34L17.96 10.50C17.96 10.58 18.03 10.65 18.12 10.65C18.21 10.65 18.28 10.58 18.28 10.50ZM16.16 0.25L16.16 0.25L13.12 4.61L10.07 0.25C10.01 0.17 9.91 0.15 9.84 0.21C9.77 0.25 9.74 0.36 9.80 0.43L12.96 4.98C12.98 5.00 12.99 5.01 13.01 5.03C13.10 5.08 13.20 5.05 13.24 4.98L16.42 0.43C16.46 0.36 16.45 0.25 16.38 0.21C16.31 0.15 16.20 0.17 16.16 0.25ZM25.86 10.50L25.86 10.50L25.86 6.50C25.86 6.40 25.79 6.33 25.69 6.33L22.69 6.33C22.61 6.33 22.53 6.40 22.53 6.50L22.53 10.50C22.53 10.58 22.61 10.65 22.69 10.65C22.78 10.65 22.86 10.58 22.86 10.50L22.86 6.65L25.54 6.65L25.54 10.50C25.54 10.58 25.61 10.65 25.69 10.65C25.79 10.65 25.86 10.58 25.86 10.50ZM22.53 0.49L22.53 0.49L22.53 4.49C22.53 4.58 22.61 4.66 22.69 4.66L25.69 4.66C25.79 4.66 25.86 4.58 25.86 4.49L25.86 0.49C25.86 0.41 25.79 0.34 25.69 0.34C25.61 0.34 25.54 0.41 25.54 0.49L25.54 4.33L22.86 4.33L22.86 0.49C22.86 0.41 22.78 0.34 22.69 0.34C22.61 0.34 22.53 0.41 22.53 0.49ZM27.54 0.49L27.54 0.49L27.54 10.50C27.54 10.58 27.61 10.65 27.69 10.65C27.79 10.65 27.86 10.58 27.86 10.50L27.86 0.49C27.86 0.41 27.79 0.34 27.69 0.34C27.61 0.34 27.54 0.41 27.54 0.49ZM20.86 10.50L20.86 10.50L20.86 0.49C20.86 0.41 20.79 0.34 20.69 0.34C20.61 0.34 20.54 0.41 20.54 0.49L20.54 10.50C20.54 10.58 20.61 10.65 20.69 10.65C20.79 10.65 20.86 10.58 20.86 10.50Z"></path></g><!----><!----></svg>